Coordinates
version=1
nRows=7
nColumns=40
inDegrees=yes

Units are S.I. units (second, meters, Newtons, ...)
Angles are in degrees.

endheader
time	pelvis_tilt	pelvis_list	pelvis_rotation	pelvis_tx	pelvis_ty	pelvis_tz	hip_flexion_r	hip_adduction_r	hip_rotation_r	knee_angle_r	knee_angle_r_beta	ankle_angle_r	subtalar_angle_r	mtp_angle_r	hip_flexion_l	hip_adduction_l	hip_rotation_l	knee_angle_l	knee_angle_l_beta	ankle_angle_l	subtalar_angle_l	mtp_angle_l	lumbar_extension	lumbar_bending	lumbar_rotation	arm_flex_r	arm_add_r	arm_rot_r	elbow_flex_r	pro_sup_r	wrist_flex_r	wrist_dev_r	arm_flex_l	arm_add_l	arm_rot_l	elbow_flex_l	pro_sup_l	wrist_flex_l	wrist_dev_l
      2.47000000	    -17.68393668	     -8.12223199	      9.09080920	     -1.58529931	      0.96545090	      0.34551581	     69.64765303	     -1.29049363	     -5.27824710	     73.04486093	     73.04486093	     -3.38599617	      0.00000000	      0.00000000	    -14.74904783	    -11.61434581	     -0.27311015	     14.56151633	     14.56151633	    -32.45451017	      0.00000000	      0.00000000	    -12.43275769	     14.36209254	    -14.21045285	    -60.42182221	    -14.18556691	    -33.42298365	     88.65446850	     87.23068820	      0.00000000	      0.00000000	     40.45233354	    -26.27116727	     -7.94576870	    136.77107163	     35.15317242	      0.00000000	      0.00000000
      2.47500000	    -17.52108074	     -8.07483603	      8.77277182	     -1.55409889	      0.96740025	      0.34490772	     69.08027213	     -1.04248598	     -4.85803401	     68.61091965	     68.61091965	     -3.53100043	      0.00000000	      0.00000000	    -16.02279003	    -11.43672147	      0.10664424	     14.73091121	     14.73091121	    -33.70422726	      0.00000000	      0.00000000	    -12.47598979	     14.60176615	    -14.27077843	    -60.95927622	    -13.88835789	    -34.56777437	     88.92657733	     87.31805202	      0.00000000	      0.00000000	     39.91329845	    -26.95736929	     -8.28809980	    138.40788652	     34.87549880	      0.00000000	      0.00000000
      2.48000000	    -17.34378599	     -7.93219895	      8.56873118	     -1.52304694	      0.96930721	      0.34431196	     68.30728800	     -0.93090230	     -4.41415990	     64.00711760	     64.00711760	     -3.72064988	      0.00000000	      0.00000000	    -17.09685448	    -11.16921966	      0.76221178	     15.35447038	     15.35447038	    -34.31059507	      0.00000000	      0.00000000	    -12.56124254	     14.73029748	    -14.43548775	    -61.30659001	    -13.55706966	    -35.64460364	     89.14896491	     87.26256384	      0.00000000	      0.00000000	     39.16987407	    -27.73574760	     -8.52996054	    139.99337573	     34.99231080	      0.00000000	      0.00000000
      2.48500000	    -17.13794415	     -7.69737123	      8.46746846	     -1.49212692	      0.97117604	      0.34371999	     67.31684185	     -0.94943923	     -3.96592932	     59.24379144	     59.24379144	     -3.96153665	      0.00000000	      0.00000000	    -18.00468003	    -10.82013224	      1.69400397	     16.40459574	     16.40459574	    -34.33952479	      0.00000000	      0.00000000	    -12.70049839	     14.75522210	    -14.68096400	    -61.47442399	    -13.19682044	    -36.66321696	     89.32202920	     87.21043522	      0.00000000	      0.00000000	     38.20246658	    -28.59161401	     -8.65668218	    141.52760006	     35.10909182	      0.00000000	      0.00000000
      2.49000000	    -16.88454567	     -7.38083588	      8.45154623	     -1.46131408	      0.97302046	      0.34312790	     66.09389389	     -1.08023273	     -3.54046944	     54.33349539	     54.33349539	     -4.27120815	      0.00000000	      0.00000000	    -18.78637190	    -10.40141676	      2.86391549	     17.84366269	     17.84366269	    -33.89167452	      0.00000000	      0.00000000	    -12.91291378	     14.69230505	    -14.97761534	    -61.47853783	    -12.81938196	    -37.61924767	     89.45286918	     87.15667991	      0.00000000	      0.00000000	     36.99852485	    -29.50384257	     -8.66605677	    142.97730985	     35.22722513	      0.00000000	      0.00000000
      2.49500000	    -16.56531688	     -6.99621818	      8.49453308	     -1.43057940	      0.97485179	      0.34254863	     64.62796111	     -1.29216978	     -3.15987333	     49.29448473	     49.29448473	     -4.68086415	      0.00000000	      0.00000000	    -19.48090136	     -9.92464272	      4.19188864	     19.62930202	     19.62930202	    -33.09259997	      0.00000000	      0.00000000	    -13.21950182	     14.55906705	    -15.28953441	    -61.33757623	    -12.43902288	    -38.50643259	     89.55299914	     87.09723286	      0.00000000	      0.00000000	     35.55107770	    -30.45066325	     -8.56103925	    144.30732692	     35.34793929	      0.00000000	      0.00000000
      2.50000000	    -16.16708431	     -6.55760402	      8.56326927	     -1.39989422	      0.97666991	      0.34200973	     62.91932575	     -1.54540886	     -2.83360333	     44.15615668	     44.15615668	     -5.23406102	      0.00000000	      0.00000000	    -20.11887883	     -9.39991223	      5.56575804	     21.71952741	     21.71952741	    -32.07762901	      0.00000000	      0.00000000	    -13.63713544	     14.36955440	    -15.58020646	    -61.06778870	    -12.07611438	    -39.31313642	     89.62839341	     87.03281298	      0.00000000	      0.00000000	     33.86110841	    -31.41266303	     -8.34755820	    145.48146782	     35.47460224	      0.00000000	      0.00000000
